# xmcd
#
# Track frame offsets:
#	150
#	13695
#	26593
#	58295
#	75417
#	93569
#	108159
#	129991
#	144768
#	159584
#	173257
#	197479
#	241782
#	265911
#	282349
#	295954
#
# Disc length: 4140 seconds
#
# Revision: 0
# Processed by: cddbd v1.5.2PL0 Copyright (c) Steve Scherf et al.
# Submitted via: EZCDAudioConverter 1.3.4.1
#
DISCID=cd102a10
DTITLE=Various Artist - Ghana Special 1/2
DYEAR=1900
DGENRE=
TTITLE0=Mercury Dance Band - Kai Wawa
TTITLE1=T.O. Jazz - Owuo Adaadaa Me
TTITLE2=Christy Azuma and Uppers International - Din Ya Sugri
TTITLE3=The Barbecues - Aaya Lolo
TTITLE4=Asaase Ase - Ohiani Sua Efir
TTITLE5=St. Peter and The Holymen - Bofoo Beye Abowa Den
TTITLE6=City Boys Band - Nya Asem Hwe
TTITLE7=Hedzoleh Soundz - Edinya Benya
TTITLE8=Cutlass Dance Band - HweHwe Mu Yi Mpena
TTITLE9=Dr. K. Gyasi and His Noble Kings - Sei Nazo
TTITLE10=Kyeremateng Atwede and The Kyeremateng Stars - I Go Die For You
TTITLE11=Vis A Vis - Obi Agye Me Dofo
TTITLE12=Ebo Taylor - Twer Nyame [Excerpt]
TTITLE13=Big Beats - Mi Nsumõõ Bo Dõnn
TTITLE14=Pa Steele's African Brothers - Odo Mmera
TTITLE15=Ogyatanaa Show Band - You Monopolise Me
EXTD=
EXTT0=
EXTT1=
EXTT2=
EXTT3=
EXTT4=
EXTT5=
EXTT6=
EXTT7=
EXTT8=
EXTT9=
EXTT10=
EXTT11=
EXTT12=
EXTT13=
EXTT14=
EXTT15=
PLAYORDER=
